# xmcd
#
# Track frame offsets: 
#        150
#        22940
#        39577
#        71872
#        105972
#        137657
#        155447
#        231197
#        256527
#
# Disc length: 4008 seconds
#
# Revision: 0
# Processed by: cddbd v1.5.2PL0 Copyright (c) Steve Scherf et al.
# Submitted via: ExactAudioCopy v0.95b4
#
DISCID=680fa609
DTITLE=The Allman Brothers Band - Live USA - CD 1
DYEAR=1900
DGENRE=Southern Rock
TTITLE0=Wasted Words
TTITLE1=Done Somebody Wrong
TTITLE2=Ramblin Man
TTITLE3=One Way Out
TTITLE4=Stormy Monday Blues
TTITLE5=Whipping Post
TTITLE6=In Memory Of Elizabeth Reed
TTITLE7=Southbound
TTITLE8=Jessica
EXTD=
EXTT0=
EXTT1=
EXTT2=
EXTT3=
EXTT4=
EXTT5=
EXTT6=
EXTT7=
EXTT8=
PLAYORDER=
